####
#
# OBJ File Generated by Meshlab
#
####
# Object aj2_right_texture.obj
#
# Vertices: 71
# Faces: 276
#
####
mtllib ./aj2_right_texture.obj.mtl

vn 2.019705 3.214121 -0.213057
v 0.052034 -0.067695 -0.048426
vn 4.144106 -4.813895 -4.078929
v 0.050577 -0.131811 -0.049945
vn 0.000216 3.004022 -1.816864
v -0.000005 -0.070227 -0.071166
vn 0.349359 4.160563 0.005168
v 0.036820 -0.099891 -0.033061
vn 3.565727 -5.153063 -9.330041
v 0.040889 -0.037226 -0.027868
vn 3.349714 -3.514903 -3.981208
v 0.063534 -0.036374 -0.036370
vn 4.395205 -0.335723 -5.635825
v 0.063536 -0.000004 -0.051435
vn 4.712642 4.104351 -4.104673
v 0.063539 0.036366 -0.036370
vn 0.401575 2.290362 -0.724328
v 0.037907 -0.060352 -0.060122
vn 2.019705 3.214121 0.213057
v 0.052034 -0.067695 0.048426
vn 4.144106 -4.813895 4.078929
v 0.050577 -0.131811 0.049945
vn 2.304744 3.447548 -0.000000
v 0.070999 -0.078213 -0.000000
vn 5.815819 -4.730549 -0.000000
v 0.070999 -0.131807 -0.000000
vn 0.000217 3.004023 1.816864
v -0.000005 -0.070227 0.071166
vn 0.349360 4.160562 -0.005168
v 0.036820 -0.099891 0.033061
vn 0.419462 5.215349 0.000000
v 0.051277 -0.099891 -0.000000
vn 7.870394 -6.323959 -0.000000
v 0.047018 -0.051439 -0.000000
vn 3.565728 -5.153064 9.330040
v 0.040889 -0.037226 0.027868
vn 4.439069 -5.682628 -0.000000
v 0.063533 -0.051439 -0.000000
vn 3.349714 -3.514905 3.981210
v 0.063534 -0.036374 0.036370
vn 4.395205 -0.335722 5.635822
v 0.063536 -0.000004 0.051435
vn 4.712642 4.104353 4.104675
v 0.063539 0.036366 0.036370
vn 4.712747 5.804552 -0.000000
v 0.063540 0.051431 -0.000000
vn 0.401575 2.290363 0.724328
v 0.037907 -0.060352 0.060122
vn 0.000590 8.209379 -8.209408
v 0.000003 0.036370 -0.036370
vn -0.000339 -4.705246 -5.797334
v -0.000009 -0.131813 -0.071099
vn -2.019245 3.214413 -0.213058
v -0.052044 -0.067688 -0.048426
vn -4.144797 -4.813299 -4.078928
v -0.050595 -0.131804 -0.049945
vn 0.000287 3.990616 0.021892
v -0.000007 -0.099891 -0.051283
vn -0.348761 4.160614 0.005168
v -0.036834 -0.099885 -0.033061
vn -3.566468 -5.152552 -9.330040
v -0.040895 -0.037220 -0.027868
vn 0.000045 0.639460 -11.713761
v -0.000000 0.000000 -0.051435
vn -3.350219 -3.514424 -3.981212
v -0.063539 -0.036365 -0.036370
vn -4.395253 -0.335090 -5.635818
v -0.063536 0.000005 -0.051435
vn -4.712051 4.105030 -4.104674
v -0.063534 0.036375 -0.036370
vn -0.401245 2.290421 -0.724328
v -0.037916 -0.060347 -0.060122
vn 0.000591 8.209380 8.209408
v 0.000003 0.036370 0.036370
vn -0.000338 -4.705246 5.797334
v -0.000009 -0.131813 0.071099
vn -2.019245 3.214413 0.213057
v -0.052044 -0.067688 0.048426
vn -4.144797 -4.813299 4.078928
v -0.050595 -0.131804 0.049945
vn -2.304248 3.447881 0.000000
v -0.071011 -0.078203 0.000000
vn -5.816502 -4.729713 0.000001
v -0.071018 -0.131797 0.000000
vn 0.000287 3.990616 -0.021891
v -0.000007 -0.099891 0.051283
vn -0.348761 4.160614 -0.005168
v -0.036834 -0.099885 0.033061
vn -0.418712 5.215409 -0.000000
v -0.051292 -0.099883 0.000000
vn -7.871304 -6.322825 0.000000
v -0.047026 -0.051432 0.000000
vn -3.566468 -5.152551 9.330041
v -0.040895 -0.037220 0.027868
vn 0.000047 0.639460 11.713761
v 0.000000 0.000000 0.051435
vn -4.439886 -5.681987 0.000000
v -0.063540 -0.051430 0.000000
vn -3.350220 -3.514421 3.981209
v -0.063539 -0.036365 0.036370
vn -4.395253 -0.335091 5.635828
v -0.063536 0.000005 0.051435
vn -4.712050 4.105027 4.104671
v -0.063534 0.036375 0.036370
vn -4.711910 5.805233 0.000000
v -0.063533 0.051440 0.000000
vn 0.000835 11.609842 0.000000
v 0.000004 0.051435 0.000000
vn -0.401245 2.290421 0.724328
v -0.037916 -0.060347 0.060122
vn -7.854278 -4.104127 -4.104693
v -0.063539 -0.030909 -0.030914
vn -7.854400 -5.804338 0.000001
v -0.063540 -0.043713 0.000000
vn -7.853983 0.000565 -5.804899
v -0.063536 0.000005 -0.043719
vn -7.853685 4.105256 -4.104691
v -0.063534 0.030919 -0.030914
vn -7.853566 5.805474 0.000001
v -0.063533 0.043724 0.000000
vn -7.854277 -4.104122 4.104688
v -0.063539 -0.030909 0.030914
vn -7.853981 0.000565 5.804914
v -0.063536 0.000005 0.043719
vn -7.853685 4.105251 4.104685
v -0.063534 0.030919 0.030914
vn -4.712685 -4.104349 -4.104688
v -0.105011 -0.030906 -0.030914
vn -4.712807 -5.804570 0.000000
v -0.105012 -0.043710 0.000000
vn -4.712389 0.000338 -5.804909
v -0.105009 0.000008 -0.043719
vn -4.712095 4.105033 -4.104697
v -0.105006 0.030922 -0.030914
vn -4.711971 5.805240 0.000000
v -0.105006 0.043727 0.000000
vn -4.712685 -4.104351 4.104690
v -0.105011 -0.030906 0.030914
vn -4.712389 0.000339 5.804909
v -0.105009 0.000008 0.043719
vn -4.712095 4.105035 4.104700
v -0.105006 0.030922 0.030914
# 71 vertices, 0 vertices normals


usemtl material_0
vt 0.212653 0.225055
vt 0.200025 0.150352
vt 0.236677 0.127642
f 25/1/25 8/2/8 7/3/7
vt 0.485594 0.784200
vt 0.486839 0.700469
vt 0.571140 0.701716
f 12/4/12 13/5/13 2/6/2
vt 0.434639 0.575552
vt 0.313978 0.694879
vt 0.313834 0.535050
f 29/7/29 32/8/32 5/9/5
vt 0.428030 0.549395
vt 0.368487 0.458795
f 4/10/4 5/9/5 17/11/17
vt 0.302748 0.036656
vt 0.236559 0.078343
vt 0.192686 0.043791
f 5/12/5 6/13/6 19/14/19
vt 0.313413 0.245860
f 5/12/5 32/15/32 7/3/7
vt 0.656812 0.702043
vt 0.656812 0.798269
f 2/6/2 26/16/26 3/17/3
vt 0.388704 0.263898
vt 0.333536 0.288970
vt 0.313834 0.265206
f 4/18/4 1/19/1 9/20/9
vt 0.156812 0.214908
vt 0.167418 0.152536
f 54/21/54 23/22/23 8/2/8
vt 0.394307 0.345363
f 12/23/12 1/19/1 4/18/4
vt 0.566599 0.801848
vt 0.595109 0.813684
f 1/24/1 2/6/2 9/25/9
vt 0.100970 0.204760
vt 0.000210 0.183955
vt 0.118640 0.107880
f 37/26/37 48/27/48 21/28/21
vt 0.402537 0.699210
f 11/29/11 13/5/13 12/4/12
vt 0.484429 0.524526
vt 0.458535 0.517436
vt 0.444758 0.403586
f 43/30/43 15/31/15 18/32/18
vt 0.439070 0.528491
f 15/31/15 16/33/16 17/11/17
vt 0.138621 0.062108
vt 0.093851 0.000210
f 19/14/19 20/34/20 18/35/18
f 18/35/18 20/34/20 21/28/21
vt 0.375251 0.810415
vt 0.313834 0.793167
f 11/29/11 24/36/24 14/37/14
vt 0.474574 0.330359
vt 0.538774 0.330114
vt 0.492081 0.403166
f 15/38/15 43/39/43 24/40/24
vt 0.138797 0.142726
f 54/21/54 37/26/37 22/41/22
vt 0.464137 0.390052
f 15/38/15 10/42/10 12/23/12
vt 0.698669 0.205600
vt 0.553374 0.146098
vt 0.613060 0.000878
f 42/43/42 26/44/26 13/45/13
vt 0.404100 0.799432
f 10/46/10 24/36/24 11/29/11
vt 0.194983 0.321936
f 25/1/25 32/15/32 34/47/34
vt 0.742484 0.701717
vt 0.826786 0.700471
vt 0.828030 0.784202
f 28/48/28 42/49/42 41/50/41
vt 0.460463 0.582666
vt 0.473719 0.696568
f 29/7/29 30/51/30 31/52/31
vt 0.480087 0.572213
vt 0.550266 0.642308
f 30/51/30 45/53/45 46/54/46
vt 0.120937 0.386025
vt 0.175002 0.367707
vt 0.219772 0.429605
f 49/55/49 33/56/33 31/57/31
f 31/57/31 33/56/33 34/47/34
vt 0.174826 0.287090
f 54/21/54 25/1/25 35/58/35
vt 0.388704 0.139478
vt 0.333536 0.114406
vt 0.394307 0.058013
f 30/59/30 27/60/27 41/61/41
vt 0.747024 0.801848
vt 0.718515 0.813685
f 27/62/27 36/63/36 28/48/28
vt 0.113598 0.279464
vt 0.076946 0.302174
f 37/26/37 52/64/52 51/65/51
vt 0.911087 0.699212
f 41/50/41 42/49/42 40/66/40
vt 0.605524 0.404998
vt 0.605524 0.566006
f 43/30/43 48/67/48 47/68/47
vt 0.491048 0.551485
f 44/69/44 47/68/47 46/54/46
vt 0.010875 0.393159
vt 0.077064 0.351472
f 47/70/47 50/71/50 49/55/49
f 47/70/47 48/27/48 51/65/51
vt 0.474574 0.073017
vt 0.464137 0.013324
vt 0.492081 0.000210
f 44/72/44 39/73/39 55/74/55
vt 0.146205 0.277279
f 54/21/54 53/75/53 52/64/52
f 41/61/41 39/73/39 44/72/44
vt 0.909524 0.799434
vt 0.938372 0.810418
f 39/76/39 40/66/40 55/77/55
vt 0.066824 0.431711
vt 0.100104 0.504784
vt 0.075096 0.522590
f 60/78/60 68/79/68 71/80/71
vt 0.743303 0.451695
vt 0.754443 0.447081
vt 0.754443 0.508591
f 56/81/56 33/82/33 49/83/49
vt 0.706334 0.414725
vt 0.710948 0.403586
f 58/84/58 34/85/34 33/82/33
vt 0.654052 0.414725
vt 0.649438 0.403587
f 58/84/58 59/86/59 35/87/35
vt 0.617083 0.451695
vt 0.605944 0.447081
f 60/88/60 53/89/53 35/87/35
vt 0.743303 0.503977
vt 0.710948 0.552085
f 57/90/57 49/83/49 50/91/50
vt 0.706334 0.540946
vt 0.649438 0.552085
f 61/92/61 50/91/50 51/93/51
vt 0.654052 0.540946
vt 0.605944 0.508591
f 62/94/62 51/93/51 52/95/52
vt 0.617083 0.503977
f 63/96/63 52/95/52 53/89/53
vt 0.732165 0.641757
vt 0.642913 0.678726
vt 0.605944 0.589474
f 65/97/65 70/98/70 68/99/68
vt 0.000888 0.494469
vt 0.072344 0.552043
f 63/100/63 71/80/71 70/101/70
vt 0.065248 0.650358
vt 0.000210 0.585898
f 61/102/61 62/103/62 70/101/70
vt 0.092219 0.574825
vt 0.123112 0.577179
f 61/102/61 69/104/69 65/105/65
vt 0.156646 0.430026
vt 0.130937 0.504953
f 60/78/60 59/106/59 67/107/67
vt 0.222351 0.493539
vt 0.150130 0.527476
f 58/108/58 66/109/66 67/107/67
vt 0.222351 0.585472
vt 0.146983 0.557491
f 56/110/56 64/111/64 66/109/66
vt 0.157031 0.650216
f 57/112/57 65/105/65 64/111/64
f 28/48/28 36/63/36 3/17/3
vt 0.372844 0.201688
vt 0.313834 0.138170
f 30/59/30 29/113/29 36/114/36
vt 0.553374 0.250181
vt 0.658378 0.206687
vt 0.701872 0.311692
f 23/115/23 21/116/21 19/117/19
f 32/15/32 25/1/25 7/3/7
f 1/24/1 12/4/12 2/6/2
f 4/10/4 29/7/29 5/9/5
f 16/33/16 4/10/4 17/11/17
vt 0.200415 0.000210
f 17/118/17 5/12/5 19/14/19
f 6/13/6 5/12/5 7/3/7
f 9/25/9 2/6/2 3/17/3
f 9/20/9 29/113/29 4/18/4
vt 0.317046 0.201688
f 29/113/29 9/20/9 3/119/3
f 25/1/25 54/21/54 8/2/8
vt 0.422334 0.309150
f 16/120/16 12/23/12 4/18/4
f 22/41/22 37/26/37 21/28/21
f 10/46/10 11/29/11 12/4/12
f 48/67/48 43/30/43 18/32/18
f 18/32/18 15/31/15 17/11/17
f 17/118/17 19/14/19 18/35/18
f 48/27/48 18/35/18 21/28/21
vt 0.316893 0.696989
f 38/121/38 11/29/11 14/37/14
f 24/40/24 10/42/10 15/38/15
vt 0.552953 0.384080
f 43/39/43 14/122/14 24/40/24
f 23/22/23 54/21/54 22/41/22
f 16/120/16 15/38/15 12/23/12
vt 0.758355 0.060380
vt 0.758355 0.146052
f 38/123/38 40/124/40 42/43/42
vt 0.697368 0.000210
f 13/45/13 11/125/11 38/123/38
vt 0.553374 0.060425
f 26/44/26 2/126/2 13/45/13
vt 0.614361 0.206267
f 42/43/42 28/127/28 26/44/26
f 13/45/13 38/123/38 42/43/42
f 35/58/35 25/1/25 34/47/34
f 27/62/27 28/48/28 41/50/41
f 32/8/32 29/7/29 31/52/31
f 31/52/31 30/51/30 46/54/46
vt 0.113208 0.429605
f 46/128/46 49/55/49 31/57/31
f 32/15/32 31/57/31 34/47/34
f 53/75/53 54/21/54 35/58/35
vt 0.422334 0.094226
f 45/129/45 30/59/30 41/61/41
f 48/27/48 37/26/37 51/65/51
f 39/76/39 41/50/41 40/66/40
f 44/69/44 43/30/43 47/68/47
f 45/53/45 44/69/44 46/54/46
f 46/128/46 47/70/47 49/55/49
f 50/71/50 47/70/47 51/65/51
vt 0.538774 0.073262
f 55/74/55 43/130/43 44/72/44
f 37/26/37 54/21/54 52/64/52
f 45/129/45 41/61/41 44/72/44
f 63/100/63 60/78/60 71/80/71
f 57/90/57 56/81/56 49/83/49
f 56/81/56 58/84/58 33/82/33
f 34/85/34 58/84/58 35/87/35
f 59/86/59 60/88/60 35/87/35
f 61/92/61 57/90/57 50/91/50
f 62/94/62 61/92/61 51/93/51
f 63/96/63 62/94/62 52/95/52
f 60/88/60 63/96/63 53/89/53
vt 0.695195 0.552505
vt 0.732165 0.589475
f 66/131/66 64/132/64 65/97/65
vt 0.642913 0.552505
f 68/99/68 67/133/67 66/131/66
vt 0.605944 0.641757
f 70/98/70 71/134/71 68/99/68
vt 0.695195 0.678726
f 65/97/65 69/135/69 70/98/70
f 68/99/68 66/131/66 65/97/65
f 62/103/62 63/100/63 70/101/70
f 69/104/69 61/102/61 70/101/70
f 57/112/57 61/102/61 65/105/65
f 68/79/68 60/78/60 67/107/67
f 59/106/59 58/108/58 67/107/67
f 58/108/58 56/110/56 66/109/66
f 56/110/56 57/112/57 64/111/64
f 26/16/26 28/48/28 3/17/3
f 36/114/36 27/60/27 30/59/30
f 29/113/29 3/119/3 36/114/36
vt 0.553374 0.311692
f 19/117/19 8/136/8 23/115/23
vt 0.658378 0.355186
vt 0.596868 0.355186
f 19/117/19 6/137/6 7/138/7
vt 0.701872 0.250182
f 21/116/21 20/139/20 19/117/19
vt 0.596868 0.206687
f 23/115/23 22/140/22 21/116/21
f 19/117/19 7/138/7 8/136/8
vt 0.996731 0.696993
vt 0.999790 0.793171
f 40/66/40 38/141/38 14/142/14
f 55/77/55 40/66/40 14/142/14
vt 0.552953 0.019296
f 43/130/43 55/74/55 14/143/14
f 25/1/25 8/2/8 7/3/7
f 12/4/12 13/5/13 2/6/2
f 29/7/29 32/8/32 5/9/5
f 4/10/4 5/9/5 17/11/17
f 5/12/5 6/13/6 19/14/19
f 5/12/5 32/15/32 7/3/7
f 2/6/2 26/16/26 3/17/3
f 4/18/4 1/19/1 9/20/9
f 54/21/54 23/22/23 8/2/8
f 12/23/12 1/19/1 4/18/4
f 1/24/1 2/6/2 9/25/9
f 37/26/37 48/27/48 21/28/21
f 11/29/11 13/5/13 12/4/12
f 43/30/43 15/31/15 18/32/18
f 15/31/15 16/33/16 17/11/17
f 19/14/19 20/34/20 18/35/18
f 18/35/18 20/34/20 21/28/21
f 11/29/11 24/36/24 14/37/14
f 15/38/15 43/39/43 24/40/24
f 54/21/54 37/26/37 22/41/22
f 15/38/15 10/42/10 12/23/12
f 42/43/42 26/44/26 13/45/13
f 10/46/10 24/36/24 11/29/11
f 25/1/25 32/15/32 34/47/34
f 28/48/28 42/49/42 41/50/41
f 29/7/29 30/51/30 31/52/31
f 30/51/30 45/53/45 46/54/46
f 49/55/49 33/56/33 31/57/31
f 31/57/31 33/56/33 34/47/34
f 54/21/54 25/1/25 35/58/35
f 30/59/30 27/60/27 41/61/41
f 27/62/27 36/63/36 28/48/28
f 37/26/37 52/64/52 51/65/51
f 41/50/41 42/49/42 40/66/40
f 43/30/43 48/67/48 47/68/47
f 44/69/44 47/68/47 46/54/46
f 47/70/47 50/71/50 49/55/49
f 47/70/47 48/27/48 51/65/51
f 44/72/44 39/73/39 55/74/55
f 54/21/54 53/75/53 52/64/52
f 41/61/41 39/73/39 44/72/44
f 39/76/39 40/66/40 55/77/55
f 60/78/60 68/79/68 71/80/71
f 56/81/56 33/82/33 49/83/49
f 58/84/58 34/85/34 33/82/33
f 58/84/58 59/86/59 35/87/35
f 60/88/60 53/89/53 35/87/35
f 57/90/57 49/83/49 50/91/50
f 61/92/61 50/91/50 51/93/51
f 62/94/62 51/93/51 52/95/52
f 63/96/63 52/95/52 53/89/53
f 65/97/65 70/98/70 68/99/68
f 63/100/63 71/80/71 70/101/70
f 61/102/61 62/103/62 70/101/70
f 61/102/61 69/104/69 65/105/65
f 60/78/60 59/106/59 67/107/67
f 58/108/58 66/109/66 67/107/67
f 56/110/56 64/111/64 66/109/66
f 57/112/57 65/105/65 64/111/64
f 28/48/28 36/63/36 3/17/3
f 30/59/30 29/113/29 36/114/36
f 23/115/23 21/116/21 19/117/19
f 32/15/32 25/1/25 7/3/7
f 1/24/1 12/4/12 2/6/2
f 4/10/4 29/7/29 5/9/5
f 16/33/16 4/10/4 17/11/17
f 17/118/17 5/12/5 19/14/19
f 6/13/6 5/12/5 7/3/7
f 9/25/9 2/6/2 3/17/3
f 9/20/9 29/113/29 4/18/4
f 29/113/29 9/20/9 3/119/3
f 25/1/25 54/21/54 8/2/8
f 16/120/16 12/23/12 4/18/4
f 22/41/22 37/26/37 21/28/21
f 10/46/10 11/29/11 12/4/12
f 48/67/48 43/30/43 18/32/18
f 18/32/18 15/31/15 17/11/17
f 17/118/17 19/14/19 18/35/18
f 48/27/48 18/35/18 21/28/21
f 38/121/38 11/29/11 14/37/14
f 24/40/24 10/42/10 15/38/15
f 43/39/43 14/122/14 24/40/24
f 23/22/23 54/21/54 22/41/22
f 16/120/16 15/38/15 12/23/12
f 38/123/38 40/124/40 42/43/42
f 13/45/13 11/125/11 38/123/38
f 26/44/26 2/126/2 13/45/13
f 42/43/42 28/127/28 26/44/26
f 13/45/13 38/123/38 42/43/42
f 35/58/35 25/1/25 34/47/34
f 27/62/27 28/48/28 41/50/41
f 32/8/32 29/7/29 31/52/31
f 31/52/31 30/51/30 46/54/46
f 46/128/46 49/55/49 31/57/31
f 32/15/32 31/57/31 34/47/34
f 53/75/53 54/21/54 35/58/35
f 45/129/45 30/59/30 41/61/41
f 48/27/48 37/26/37 51/65/51
f 39/76/39 41/50/41 40/66/40
f 44/69/44 43/30/43 47/68/47
f 45/53/45 44/69/44 46/54/46
f 46/128/46 47/70/47 49/55/49
f 50/71/50 47/70/47 51/65/51
f 55/74/55 43/130/43 44/72/44
f 37/26/37 54/21/54 52/64/52
f 45/129/45 41/61/41 44/72/44
f 63/100/63 60/78/60 71/80/71
f 57/90/57 56/81/56 49/83/49
f 56/81/56 58/84/58 33/82/33
f 34/85/34 58/84/58 35/87/35
f 59/86/59 60/88/60 35/87/35
f 61/92/61 57/90/57 50/91/50
f 62/94/62 61/92/61 51/93/51
f 63/96/63 62/94/62 52/95/52
f 60/88/60 63/96/63 53/89/53
f 66/131/66 64/132/64 65/97/65
f 68/99/68 67/133/67 66/131/66
f 70/98/70 71/134/71 68/99/68
f 65/97/65 69/135/69 70/98/70
f 68/99/68 66/131/66 65/97/65
f 62/103/62 63/100/63 70/101/70
f 69/104/69 61/102/61 70/101/70
f 57/112/57 61/102/61 65/105/65
f 68/79/68 60/78/60 67/107/67
f 59/106/59 58/108/58 67/107/67
f 58/108/58 56/110/56 66/109/66
f 56/110/56 57/112/57 64/111/64
f 26/16/26 28/48/28 3/17/3
f 36/114/36 27/60/27 30/59/30
f 29/113/29 3/119/3 36/114/36
f 19/117/19 8/136/8 23/115/23
f 19/117/19 6/137/6 7/138/7
f 21/116/21 20/139/20 19/117/19
f 23/115/23 22/140/22 21/116/21
f 19/117/19 7/138/7 8/136/8
f 40/66/40 38/141/38 14/142/14
f 55/77/55 40/66/40 14/142/14
f 43/130/43 55/74/55 14/143/14
# 276 faces, 143 coords texture

# End of File