####
#
# OBJ File Generated by Meshlab
#
####
# Object aj2_left_texture.obj
#
# Vertices: 71
# Faces: 276
#
####
mtllib ./aj2_left_texture.obj.mtl

vn 2.019254 -3.214413 -0.213063
v 0.052044 0.067688 -0.048426
vn 4.144808 4.813301 -4.078938
v 0.050595 0.131804 -0.049945
vn -0.000216 -3.004023 -1.816868
v 0.000005 0.070227 -0.071166
vn 0.348766 -4.160616 0.005167
v 0.036834 0.099885 -0.033061
vn 3.566458 5.152555 -9.330039
v 0.040895 0.037220 -0.027868
vn 3.350210 3.514414 -3.981210
v 0.063539 0.036365 -0.036370
vn 4.395251 0.335089 -5.635823
v 0.063536 -0.000005 -0.051435
vn 4.712053 -4.105029 -4.104675
v 0.063534 -0.036375 -0.036370
vn 0.401245 -2.290423 -0.724326
v 0.037916 0.060347 -0.060122
vn 2.019255 -3.214413 0.213063
v 0.052044 0.067688 0.048426
vn 4.144808 4.813301 4.078938
v 0.050595 0.131804 0.049945
vn 2.304253 -3.447885 -0.000000
v 0.071010 0.078203 -0.000000
vn 5.816500 4.729708 -0.000000
v 0.071018 0.131797 -0.000000
vn -0.000216 -3.004023 1.816869
v 0.000005 0.070227 0.071166
vn 0.348766 -4.160616 -0.005168
v 0.036834 0.099885 0.033061
vn 0.418710 -5.215411 0.000000
v 0.051292 0.099883 -0.000000
vn 7.871289 6.322832 -0.000001
v 0.047026 0.051432 -0.000000
vn 3.566459 5.152555 9.330038
v 0.040895 0.037220 0.027868
vn 4.439870 5.681984 -0.000000
v 0.063540 0.051430 -0.000000
vn 3.350209 3.514417 3.981212
v 0.063539 0.036365 0.036370
vn 4.395251 0.335089 5.635821
v 0.063536 -0.000005 0.051435
vn 4.712054 -4.105031 4.104675
v 0.063534 -0.036375 0.036370
vn 4.711902 -5.805228 -0.000000
v 0.063533 -0.051440 -0.000000
vn 0.401245 -2.290423 0.724325
v 0.037916 0.060347 0.060122
vn -0.000591 -8.209382 -8.209405
v -0.000003 -0.036370 -0.036370
vn 0.000338 4.705245 -5.797333
v 0.000009 0.131813 -0.071099
vn -2.019715 -3.214122 -0.213063
v -0.052034 0.067695 -0.048426
vn -4.144118 4.813898 -4.078939
v -0.050577 0.131811 -0.049945
vn -0.000287 -3.990615 0.021893
v 0.000007 0.099891 -0.051283
vn -0.349363 -4.160564 0.005168
v -0.036820 0.099891 -0.033061
vn -3.565718 5.153069 -9.330038
v -0.040889 0.037226 -0.027868
vn -0.000047 -0.639461 -11.713759
v -0.000000 0.000000 -0.051435
vn -3.349706 3.514898 -3.981211
v -0.063534 0.036374 -0.036370
vn -4.395204 0.335721 -5.635818
v -0.063536 0.000004 -0.051435
vn -4.712646 -4.104354 -4.104677
v -0.063539 -0.036366 -0.036370
vn -0.401575 -2.290365 -0.724325
v -0.037907 0.060352 -0.060122
vn -0.000590 -8.209382 8.209405
v -0.000003 -0.036370 0.036370
vn 0.000339 4.705245 5.797333
v 0.000009 0.131813 0.071099
vn -2.019715 -3.214122 0.213063
v -0.052034 0.067695 0.048426
vn -4.144117 4.813898 4.078940
v -0.050576 0.131811 0.049945
vn -2.304747 -3.447554 0.000000
v -0.070999 0.078213 0.000000
vn -5.815816 4.730544 0.000001
v -0.070999 0.131807 0.000000
vn -0.000288 -3.990615 -0.021892
v 0.000007 0.099891 0.051283
vn -0.349364 -4.160564 -0.005167
v -0.036820 0.099891 0.033061
vn -0.419461 -5.215351 0.000000
v -0.051277 0.099891 0.000000
vn -7.870379 6.323965 0.000000
v -0.047018 0.051439 0.000000
vn -3.565717 5.153067 9.330039
v -0.040889 0.037226 0.027868
vn -0.000045 -0.639461 11.713759
v 0.000000 -0.000000 0.051435
vn -4.439052 5.682624 0.000000
v -0.063533 0.051439 0.000000
vn -3.349705 3.514894 3.981209
v -0.063534 0.036374 0.036370
vn -4.395203 0.335721 5.635827
v -0.063536 0.000004 0.051435
vn -4.712645 -4.104352 4.104674
v -0.063539 -0.036366 0.036370
vn -4.712738 -5.804546 0.000000
v -0.063540 -0.051431 0.000000
vn -0.000835 -11.609842 0.000000
v -0.000004 -0.051435 0.000000
vn -0.401575 -2.290365 0.724325
v -0.037907 0.060352 0.060122
vn -7.853685 4.105255 -4.104692
v -0.063534 0.030918 -0.030914
vn -7.853565 5.805473 0.000000
v -0.063533 0.043723 0.000000
vn -7.853983 0.000565 -5.804899
v -0.063536 0.000004 -0.043719
vn -7.854276 -4.104127 -4.104694
v -0.063539 -0.030910 -0.030914
vn -7.854405 -5.804336 -0.000000
v -0.063540 -0.043715 0.000000
vn -7.853685 4.105248 4.104688
v -0.063534 0.030918 0.030914
vn -7.853981 0.000566 5.804914
v -0.063536 0.000004 0.043719
vn -7.854275 -4.104121 4.104689
v -0.063539 -0.030910 0.030914
vn -4.712095 4.105026 -4.104688
v -0.105006 0.030921 -0.030914
vn -4.711970 5.805244 0.000000
v -0.105005 0.043726 0.000000
vn -4.712389 0.000339 -5.804907
v -0.105009 0.000007 -0.043719
vn -4.712686 -4.104349 -4.104687
v -0.105011 -0.030907 -0.030914
vn -4.712818 -5.804572 0.000000
v -0.105012 -0.043712 0.000000
vn -4.712094 4.105029 4.104691
v -0.105006 0.030921 0.030914
vn -4.712388 0.000339 5.804906
v -0.105009 0.000007 0.043719
vn -4.712685 -4.104351 4.104689
v -0.105011 -0.030907 0.030914
# 71 vertices, 0 vertices normals


usemtl material_0
vt 0.212653 0.225055
vt 0.236677 0.127642
vt 0.200025 0.150352
f 25/1/25 7/2/7 8/3/8
vt 0.485594 0.784200
vt 0.571140 0.701716
vt 0.486839 0.700469
f 12/4/12 2/5/2 13/6/13
vt 0.434639 0.575552
vt 0.313834 0.535050
vt 0.313978 0.694879
f 29/7/29 5/8/5 32/9/32
vt 0.428030 0.549395
vt 0.368487 0.458795
f 4/10/4 17/11/17 5/8/5
vt 0.302748 0.036656
vt 0.192686 0.043791
vt 0.236559 0.078343
f 5/12/5 19/13/19 6/14/6
vt 0.313413 0.245860
f 5/12/5 7/2/7 32/15/32
vt 0.656812 0.798269
vt 0.656812 0.702043
f 2/5/2 3/16/3 26/17/26
vt 0.388704 0.263898
vt 0.313834 0.265206
vt 0.333536 0.288970
f 4/18/4 9/19/9 1/20/1
vt 0.156812 0.214908
vt 0.167418 0.152536
f 54/21/54 8/3/8 23/22/23
vt 0.394307 0.345363
f 12/23/12 4/18/4 1/20/1
vt 0.566599 0.801848
vt 0.595109 0.813684
f 1/24/1 9/25/9 2/5/2
vt 0.100970 0.204760
vt 0.118640 0.107880
vt 0.000210 0.183955
f 37/26/37 21/27/21 48/28/48
vt 0.402537 0.699210
f 11/29/11 12/4/12 13/6/13
vt 0.484429 0.524526
vt 0.444758 0.403586
vt 0.458535 0.517436
f 43/30/43 18/31/18 15/32/15
vt 0.439070 0.528491
f 15/32/15 17/11/17 16/33/16
vt 0.093851 0.000210
vt 0.138621 0.062108
f 19/13/19 18/34/18 20/35/20
f 18/34/18 21/27/21 20/35/20
vt 0.313834 0.793167
vt 0.375251 0.810415
f 11/29/11 14/36/14 24/37/24
vt 0.474574 0.330359
vt 0.492081 0.403166
vt 0.538774 0.330114
f 15/38/15 24/39/24 43/40/43
vt 0.138797 0.142726
f 54/21/54 22/41/22 37/26/37
vt 0.464137 0.390052
f 15/38/15 12/23/12 10/42/10
vt 0.698669 0.205600
vt 0.613060 0.000878
vt 0.553374 0.146098
f 42/43/42 13/44/13 26/45/26
vt 0.404100 0.799432
f 10/46/10 11/29/11 24/37/24
vt 0.194983 0.321936
f 25/1/25 34/47/34 32/15/32
vt 0.742484 0.701717
vt 0.828030 0.784202
vt 0.826786 0.700471
f 28/48/28 41/49/41 42/50/42
vt 0.473719 0.696568
vt 0.460463 0.582666
f 29/7/29 31/51/31 30/52/30
vt 0.550266 0.642308
vt 0.480087 0.572213
f 30/52/30 46/53/46 45/54/45
vt 0.120937 0.386025
vt 0.219772 0.429605
vt 0.175002 0.367707
f 49/55/49 31/56/31 33/57/33
f 31/56/31 34/47/34 33/57/33
vt 0.174826 0.287090
f 54/21/54 35/58/35 25/1/25
vt 0.388704 0.139478
vt 0.394307 0.058013
vt 0.333536 0.114406
f 30/59/30 41/60/41 27/61/27
vt 0.747024 0.801848
vt 0.718515 0.813685
f 27/62/27 28/48/28 36/63/36
vt 0.076946 0.302174
vt 0.113598 0.279464
f 37/26/37 51/64/51 52/65/52
vt 0.911087 0.699212
f 41/49/41 40/66/40 42/50/42
vt 0.605524 0.566006
vt 0.605524 0.404998
f 43/30/43 47/67/47 48/68/48
vt 0.491048 0.551485
f 44/69/44 46/53/46 47/67/47
vt 0.010875 0.393159
vt 0.077064 0.351472
f 47/70/47 49/55/49 50/71/50
f 47/70/47 51/64/51 48/28/48
vt 0.474574 0.073017
vt 0.492081 0.000210
vt 0.464137 0.013324
f 44/72/44 55/73/55 39/74/39
vt 0.146205 0.277279
f 54/21/54 52/65/52 53/75/53
f 41/60/41 44/72/44 39/74/39
vt 0.909524 0.799434
vt 0.938372 0.810418
f 39/76/39 55/77/55 40/66/40
vt 0.066824 0.431711
vt 0.075096 0.522590
vt 0.100104 0.504784
f 60/78/60 71/79/71 68/80/68
vt 0.743303 0.451695
vt 0.754443 0.508591
vt 0.754443 0.447081
f 56/81/56 49/82/49 33/83/33
vt 0.706334 0.414725
vt 0.710948 0.403586
f 58/84/58 33/83/33 34/85/34
vt 0.649438 0.403587
vt 0.654052 0.414725
f 58/84/58 35/86/35 59/87/59
vt 0.617083 0.451695
vt 0.605944 0.447081
f 60/88/60 35/86/35 53/89/53
vt 0.743303 0.503977
vt 0.710948 0.552085
f 57/90/57 50/91/50 49/82/49
vt 0.706334 0.540946
vt 0.649438 0.552085
f 61/92/61 51/93/51 50/91/50
vt 0.654052 0.540946
vt 0.605944 0.508591
f 62/94/62 52/95/52 51/93/51
vt 0.617083 0.503977
f 63/96/63 53/89/53 52/95/52
vt 0.732165 0.641757
vt 0.605944 0.589474
vt 0.642913 0.678726
f 65/97/65 68/98/68 70/99/70
vt 0.000888 0.494469
vt 0.072344 0.552043
f 63/100/63 70/101/70 71/79/71
vt 0.065248 0.650358
vt 0.000210 0.585898
f 61/102/61 70/101/70 62/103/62
vt 0.123112 0.577179
vt 0.092219 0.574825
f 61/102/61 65/104/65 69/105/69
vt 0.130937 0.504953
vt 0.156646 0.430026
f 60/78/60 67/106/67 59/107/59
vt 0.222351 0.493539
vt 0.150130 0.527476
f 58/108/58 67/106/67 66/109/66
vt 0.222351 0.585472
vt 0.146983 0.557491
f 56/110/56 66/109/66 64/111/64
vt 0.157031 0.650216
f 57/112/57 64/111/64 65/104/65
f 28/48/28 3/16/3 36/63/36
vt 0.313834 0.138170
vt 0.372844 0.201688
f 30/59/30 36/113/36 29/114/29
vt 0.553374 0.250181
vt 0.701872 0.311692
vt 0.658378 0.206687
f 23/115/23 19/116/19 21/117/21
f 32/15/32 7/2/7 25/1/25
f 1/24/1 2/5/2 12/4/12
f 4/10/4 5/8/5 29/7/29
f 16/33/16 17/11/17 4/10/4
vt 0.200415 0.000210
f 17/118/17 19/13/19 5/12/5
f 6/14/6 7/2/7 5/12/5
f 9/25/9 3/16/3 2/5/2
f 9/19/9 4/18/4 29/114/29
vt 0.317046 0.201688
f 29/114/29 3/119/3 9/19/9
f 25/1/25 8/3/8 54/21/54
vt 0.422334 0.309150
f 16/120/16 4/18/4 12/23/12
f 22/41/22 21/27/21 37/26/37
f 10/46/10 12/4/12 11/29/11
f 48/68/48 18/31/18 43/30/43
f 18/31/18 17/11/17 15/32/15
f 17/118/17 18/34/18 19/13/19
f 48/28/48 21/27/21 18/34/18
vt 0.316893 0.696989
f 38/121/38 14/36/14 11/29/11
f 24/39/24 15/38/15 10/42/10
vt 0.552953 0.384080
f 43/40/43 24/39/24 14/122/14
f 23/22/23 22/41/22 54/21/54
f 16/120/16 12/23/12 15/38/15
vt 0.758355 0.060380
vt 0.758355 0.146052
f 38/123/38 42/43/42 40/124/40
vt 0.697368 0.000210
f 13/44/13 38/123/38 11/125/11
vt 0.553374 0.060425
f 26/45/26 13/44/13 2/126/2
vt 0.614361 0.206267
f 42/43/42 26/45/26 28/127/28
f 13/44/13 42/43/42 38/123/38
f 35/58/35 34/47/34 25/1/25
f 27/62/27 41/49/41 28/48/28
f 32/9/32 31/51/31 29/7/29
f 31/51/31 46/53/46 30/52/30
vt 0.113208 0.429605
f 46/128/46 31/56/31 49/55/49
f 32/15/32 34/47/34 31/56/31
f 53/75/53 35/58/35 54/21/54
vt 0.422334 0.094226
f 45/129/45 41/60/41 30/59/30
f 48/28/48 51/64/51 37/26/37
f 39/76/39 40/66/40 41/49/41
f 44/69/44 47/67/47 43/30/43
f 45/54/45 46/53/46 44/69/44
f 46/128/46 49/55/49 47/70/47
f 50/71/50 51/64/51 47/70/47
vt 0.538774 0.073262
f 55/73/55 44/72/44 43/130/43
f 37/26/37 52/65/52 54/21/54
f 45/129/45 44/72/44 41/60/41
f 63/100/63 71/79/71 60/78/60
f 57/90/57 49/82/49 56/81/56
f 56/81/56 33/83/33 58/84/58
f 34/85/34 35/86/35 58/84/58
f 59/87/59 35/86/35 60/88/60
f 61/92/61 50/91/50 57/90/57
f 62/94/62 51/93/51 61/92/61
f 63/96/63 52/95/52 62/94/62
f 60/88/60 53/89/53 63/96/63
vt 0.695195 0.552505
vt 0.732165 0.589475
f 66/131/66 65/97/65 64/132/64
vt 0.642913 0.552505
f 68/98/68 66/131/66 67/133/67
vt 0.605944 0.641757
f 70/99/70 68/98/68 71/134/71
vt 0.695195 0.678726
f 65/97/65 70/99/70 69/135/69
f 68/98/68 65/97/65 66/131/66
f 62/103/62 70/101/70 63/100/63
f 69/105/69 70/101/70 61/102/61
f 57/112/57 65/104/65 61/102/61
f 68/80/68 67/106/67 60/78/60
f 59/107/59 67/106/67 58/108/58
f 58/108/58 66/109/66 56/110/56
f 56/110/56 64/111/64 57/112/57
f 26/17/26 3/16/3 28/48/28
f 36/113/36 30/59/30 27/61/27
f 29/114/29 36/113/36 3/119/3
vt 0.553374 0.311692
f 19/116/19 23/115/23 8/136/8
vt 0.596868 0.355186
vt 0.658378 0.355186
f 19/116/19 7/137/7 6/138/6
vt 0.701872 0.250182
f 21/117/21 19/116/19 20/139/20
vt 0.596868 0.206687
f 23/115/23 21/117/21 22/140/22
f 19/116/19 8/136/8 7/137/7
vt 0.999790 0.793171
vt 0.996731 0.696993
f 40/66/40 14/141/14 38/142/38
f 55/77/55 14/141/14 40/66/40
vt 0.552953 0.019296
f 43/130/43 14/143/14 55/73/55
f 25/1/25 7/2/7 8/3/8
f 12/4/12 2/5/2 13/6/13
f 29/7/29 5/8/5 32/9/32
f 4/10/4 17/11/17 5/8/5
f 5/12/5 19/13/19 6/14/6
f 5/12/5 7/2/7 32/15/32
f 2/5/2 3/16/3 26/17/26
f 4/18/4 9/19/9 1/20/1
f 54/21/54 8/3/8 23/22/23
f 12/23/12 4/18/4 1/20/1
f 1/24/1 9/25/9 2/5/2
f 37/26/37 21/27/21 48/28/48
f 11/29/11 12/4/12 13/6/13
f 43/30/43 18/31/18 15/32/15
f 15/32/15 17/11/17 16/33/16
f 19/13/19 18/34/18 20/35/20
f 18/34/18 21/27/21 20/35/20
f 11/29/11 14/36/14 24/37/24
f 15/38/15 24/39/24 43/40/43
f 54/21/54 22/41/22 37/26/37
f 15/38/15 12/23/12 10/42/10
f 42/43/42 13/44/13 26/45/26
f 10/46/10 11/29/11 24/37/24
f 25/1/25 34/47/34 32/15/32
f 28/48/28 41/49/41 42/50/42
f 29/7/29 31/51/31 30/52/30
f 30/52/30 46/53/46 45/54/45
f 49/55/49 31/56/31 33/57/33
f 31/56/31 34/47/34 33/57/33
f 54/21/54 35/58/35 25/1/25
f 30/59/30 41/60/41 27/61/27
f 27/62/27 28/48/28 36/63/36
f 37/26/37 51/64/51 52/65/52
f 41/49/41 40/66/40 42/50/42
f 43/30/43 47/67/47 48/68/48
f 44/69/44 46/53/46 47/67/47
f 47/70/47 49/55/49 50/71/50
f 47/70/47 51/64/51 48/28/48
f 44/72/44 55/73/55 39/74/39
f 54/21/54 52/65/52 53/75/53
f 41/60/41 44/72/44 39/74/39
f 39/76/39 55/77/55 40/66/40
f 60/78/60 71/79/71 68/80/68
f 56/81/56 49/82/49 33/83/33
f 58/84/58 33/83/33 34/85/34
f 58/84/58 35/86/35 59/87/59
f 60/88/60 35/86/35 53/89/53
f 57/90/57 50/91/50 49/82/49
f 61/92/61 51/93/51 50/91/50
f 62/94/62 52/95/52 51/93/51
f 63/96/63 53/89/53 52/95/52
f 65/97/65 68/98/68 70/99/70
f 63/100/63 70/101/70 71/79/71
f 61/102/61 70/101/70 62/103/62
f 61/102/61 65/104/65 69/105/69
f 60/78/60 67/106/67 59/107/59
f 58/108/58 67/106/67 66/109/66
f 56/110/56 66/109/66 64/111/64
f 57/112/57 64/111/64 65/104/65
f 28/48/28 3/16/3 36/63/36
f 30/59/30 36/113/36 29/114/29
f 23/115/23 19/116/19 21/117/21
f 32/15/32 7/2/7 25/1/25
f 1/24/1 2/5/2 12/4/12
f 4/10/4 5/8/5 29/7/29
f 16/33/16 17/11/17 4/10/4
f 17/118/17 19/13/19 5/12/5
f 6/14/6 7/2/7 5/12/5
f 9/25/9 3/16/3 2/5/2
f 9/19/9 4/18/4 29/114/29
f 29/114/29 3/119/3 9/19/9
f 25/1/25 8/3/8 54/21/54
f 16/120/16 4/18/4 12/23/12
f 22/41/22 21/27/21 37/26/37
f 10/46/10 12/4/12 11/29/11
f 48/68/48 18/31/18 43/30/43
f 18/31/18 17/11/17 15/32/15
f 17/118/17 18/34/18 19/13/19
f 48/28/48 21/27/21 18/34/18
f 38/121/38 14/36/14 11/29/11
f 24/39/24 15/38/15 10/42/10
f 43/40/43 24/39/24 14/122/14
f 23/22/23 22/41/22 54/21/54
f 16/120/16 12/23/12 15/38/15
f 38/123/38 42/43/42 40/124/40
f 13/44/13 38/123/38 11/125/11
f 26/45/26 13/44/13 2/126/2
f 42/43/42 26/45/26 28/127/28
f 13/44/13 42/43/42 38/123/38
f 35/58/35 34/47/34 25/1/25
f 27/62/27 41/49/41 28/48/28
f 32/9/32 31/51/31 29/7/29
f 31/51/31 46/53/46 30/52/30
f 46/128/46 31/56/31 49/55/49
f 32/15/32 34/47/34 31/56/31
f 53/75/53 35/58/35 54/21/54
f 45/129/45 41/60/41 30/59/30
f 48/28/48 51/64/51 37/26/37
f 39/76/39 40/66/40 41/49/41
f 44/69/44 47/67/47 43/30/43
f 45/54/45 46/53/46 44/69/44
f 46/128/46 49/55/49 47/70/47
f 50/71/50 51/64/51 47/70/47
f 55/73/55 44/72/44 43/130/43
f 37/26/37 52/65/52 54/21/54
f 45/129/45 44/72/44 41/60/41
f 63/100/63 71/79/71 60/78/60
f 57/90/57 49/82/49 56/81/56
f 56/81/56 33/83/33 58/84/58
f 34/85/34 35/86/35 58/84/58
f 59/87/59 35/86/35 60/88/60
f 61/92/61 50/91/50 57/90/57
f 62/94/62 51/93/51 61/92/61
f 63/96/63 52/95/52 62/94/62
f 60/88/60 53/89/53 63/96/63
f 66/131/66 65/97/65 64/132/64
f 68/98/68 66/131/66 67/133/67
f 70/99/70 68/98/68 71/134/71
f 65/97/65 70/99/70 69/135/69
f 68/98/68 65/97/65 66/131/66
f 62/103/62 70/101/70 63/100/63
f 69/105/69 70/101/70 61/102/61
f 57/112/57 65/104/65 61/102/61
f 68/80/68 67/106/67 60/78/60
f 59/107/59 67/106/67 58/108/58
f 58/108/58 66/109/66 56/110/56
f 56/110/56 64/111/64 57/112/57
f 26/17/26 3/16/3 28/48/28
f 36/113/36 30/59/30 27/61/27
f 29/114/29 36/113/36 3/119/3
f 19/116/19 23/115/23 8/136/8
f 19/116/19 7/137/7 6/138/6
f 21/117/21 19/116/19 20/139/20
f 23/115/23 21/117/21 22/140/22
f 19/116/19 8/136/8 7/137/7
f 40/66/40 14/141/14 38/142/38
f 55/77/55 14/141/14 40/66/40
f 43/130/43 14/143/14 55/73/55
# 276 faces, 143 coords texture

# End of File